<svg width="42" height="32" viewBox="0 0 42 32" fill="none" xmlns="http://www.w3.org/2000/svg">
<path d="M21.5424 23.4866C21.2175 23.8114 20.9462 24.0723 20.9462 24.0723L20.9488 24.0736C20.944 24.0719 20.6769 24.3351 20.3526 24.6594L17.399 27.613C17.0741 27.9378 17.0741 28.4688 17.399 28.7936L20.3617 31.7564C20.6866 32.0812 21.2175 32.0812 21.5424 31.7564L41.6578 11.637C41.9827 11.3121 41.9827 10.7811 41.6578 10.4563L31.7912 0.589675C31.4664 0.264832 30.8245 0 30.3653 0L11.527 0.00782755C11.0678 0.00782755 10.426 0.273964 10.1011 0.598808L0.243632 10.4576C-0.0812107 10.7824 -0.0812107 11.3134 0.243632 11.6383L12.0815 23.4761C12.4063 23.801 12.9373 23.801 13.2621 23.4761L16.2157 20.5225C16.5406 20.1977 16.5406 19.6667 16.2157 19.3419L8.51212 11.6383C8.18728 11.3134 8.18728 10.7824 8.51212 10.4576L12.525 6.44599C12.8499 6.12114 13.4917 5.85501 13.951 5.85501L27.9453 5.84848C28.4045 5.84718 29.0464 6.11332 29.3712 6.43816L33.3907 10.4576C33.7155 10.7824 33.7155 11.3134 33.3907 11.6383L21.5424 23.4866Z" fill="#FFFFFF"/>
</svg>
