<svg width="108" height="148" viewBox="0 0 108 148" fill="none" xmlns="http://www.w3.org/2000/svg">
<g id="Mask group">
<mask id="mask0_1_13322" style="mask-type:alpha" maskUnits="userSpaceOnUse" x="0" y="0" width="108" height="148">
<g id="Group">
<path id="Vector" d="M107.985 54.0695C107.985 24.2078 83.8124 0 53.9932 0C24.1741 0 0.000976562 24.2078 0.000976562 54.0695V147.502H107.985V54.0695Z" fill="url(#paint0_linear_1_13322)"/>
</g>
</mask>
<g mask="url(#mask0_1_13322)">
<g id="Group_2">
<path id="Vector_2" fill-rule="evenodd" clip-rule="evenodd" d="M115.449 12.6948L115.45 12.6951C115.45 12.6951 115.45 12.695 115.449 12.6949C115.442 12.6925 115.368 12.6702 115.216 12.6392C115.047 12.605 114.811 12.5659 114.498 12.5306C113.868 12.4595 113.005 12.412 111.892 12.4284C109.662 12.4613 106.589 12.748 102.627 13.5063C99.6759 14.0711 96.2632 14.8915 92.3783 16.0456C96.9888 20.7126 100.756 26.216 103.434 32.3082C110.625 31.2079 116.139 31.3537 119.547 32.4913L115.449 44.8019L115.449 44.8023C115.442 44.7997 115.368 44.7777 115.216 44.7465C115.047 44.7124 114.811 44.6734 114.498 44.638C113.868 44.5666 113.005 44.5194 111.892 44.5359C110.612 44.5545 109.054 44.657 107.209 44.8845C107.719 47.87 107.985 50.9386 107.985 54.0699V63.8629C112.977 63.4295 116.898 63.7146 119.547 64.5987L115.449 76.9093L115.449 76.9097C115.442 76.9071 115.368 76.8846 115.216 76.8539C115.047 76.8197 114.811 76.7804 114.498 76.7453C113.868 76.674 113.005 76.6268 111.892 76.6432C110.796 76.6592 109.495 76.7367 107.985 76.9015V95.9703C112.977 95.5369 116.898 95.8219 119.547 96.7061L115.449 109.017H115.449C115.442 109.014 115.368 108.992 115.216 108.961C115.047 108.927 114.811 108.888 114.498 108.853C113.868 108.781 113.005 108.734 111.892 108.75C110.796 108.767 109.495 108.844 107.985 109.009V128.048C113.437 127.636 118.358 127.949 122.279 129.257L112.717 157.982C112.801 158.011 112.875 158.034 112.936 158.054C113.102 158.108 113.186 158.136 113.184 158.149C113.182 158.163 113.083 158.162 112.878 158.159C112.025 158.147 109.339 158.11 104.248 159.084C97.1253 160.447 86.539 163.562 72.2604 170.044C37.9618 185.615 10.1154 172.048 -1.88134 166.203H-1.88181C-2.94414 165.685 -3.88216 165.229 -4.68939 164.857C-7.54329 163.645 -12.1591 162.016 -16.6125 160.667C-18.8419 159.992 -20.8348 159.446 -22.3673 159.086C-23.2431 158.88 -23.7361 158.791 -23.9276 158.757C-23.9914 158.745 -24.0217 158.739 -24.0215 158.738C-24.0213 158.736 -23.9962 158.738 -23.9484 158.74C-23.8417 158.747 -23.6219 158.759 -23.3137 158.759V128.48C-20.4393 128.48 -17.3062 129.173 -15.4531 129.609C-13.1119 130.16 -10.4743 130.893 -7.85847 131.685C-5.3141 132.456 -2.60186 133.341 0.000717163 134.257V116.745C-0.41925 116.546 -0.819618 116.358 -1.20003 116.185C-4.43813 114.8 -9.43128 113.046 -14.1114 111.628C-16.4511 110.919 -18.6283 110.32 -20.3918 109.906C-21.2748 109.698 -22.0039 109.548 -22.5678 109.454C-23.0187 109.378 -23.2498 109.357 -23.3127 109.352C-23.3248 109.351 -23.3306 109.35 -23.3306 109.35C-23.3306 109.35 -23.3304 109.35 -23.3298 109.35C-23.3288 109.35 -23.3267 109.35 -23.3235 109.35H-23.3137V96.373C-21.5627 96.373 -19.3295 96.8255 -17.4285 97.2727C-15.3185 97.7689 -12.865 98.4484 -10.3596 99.2071C-6.91905 100.25 -3.22023 101.491 0.000717163 102.701V84.6377C-0.41925 84.4383 -0.819618 84.2506 -1.20003 84.0771C-4.43813 82.6925 -9.43128 80.9385 -14.1114 79.5206C-16.4511 78.8121 -18.6283 78.213 -20.3918 77.7982C-21.2748 77.5905 -22.0039 77.4409 -22.5678 77.3461C-23.0187 77.2704 -23.2498 77.2501 -23.3127 77.2445C-23.3248 77.2432 -23.3306 77.2428 -23.3306 77.2428C-23.3306 77.2423 -23.3249 77.2423 -23.3137 77.2423V64.2656C-21.5627 64.2656 -19.3295 64.7181 -17.4285 65.1654C-15.3185 65.6619 -12.865 66.341 -10.3596 67.0997C-6.91905 68.1422 -3.22023 69.3836 0.000717163 70.5935V54.0699C0.000717163 53.5581 0.00781059 53.0486 0.0219002 52.5403C-0.405792 52.3375 -0.813225 52.1463 -1.20003 51.9698C-4.43813 50.5852 -9.43128 48.8312 -14.1114 47.4132C-16.4511 46.7047 -18.6283 46.1056 -20.3918 45.6908C-21.2748 45.4832 -22.0039 45.3335 -22.5678 45.2388C-23.0189 45.1631 -23.2499 45.1428 -23.3127 45.1371C-23.3248 45.1363 -23.3306 45.1354 -23.3306 45.1354C-23.3306 45.135 -23.3254 45.135 -23.3153 45.135H-23.3137V32.1584C-21.5627 32.1584 -19.3295 32.6109 -17.4285 33.058C-15.3185 33.5544 -12.865 34.2336 -10.3596 34.9926C-6.16325 36.2637 -1.58276 37.8313 2.04636 39.2767C3.54604 33.9851 5.83019 29.024 8.76498 24.5273C6.16122 23.3946 3.85976 22.2828 1.88774 21.33L1.88711 21.3297L1.88671 21.3295L1.88533 21.3288C0.744915 20.7779 -0.285286 20.2802 -1.20003 19.8625C-4.43813 18.4779 -9.43128 16.7238 -14.1114 15.3061C-16.4511 14.5974 -18.6283 13.9984 -20.3918 13.5836C-21.2748 13.3759 -22.0039 13.2262 -22.5678 13.1316C-23.0188 13.056 -23.2499 13.0354 -23.3127 13.0298C-23.3248 13.0288 -23.3306 13.0282 -23.3306 13.028C-23.3306 13.0277 -23.3254 13.0277 -23.3154 13.0277H-23.3137V0.0510519C-21.5627 0.0510519 -19.3295 0.503566 -17.4285 0.950743C-15.3185 1.44712 -12.865 2.12631 -10.3596 2.88523C-5.38062 4.39343 0.139126 6.31896 3.96891 7.96263L4.03363 7.9904L4.09773 8.0196C5.16315 8.50458 6.30113 9.04744 7.51029 9.62429C10.4635 11.0331 13.8411 12.6444 17.6216 14.1087C27.2177 5.34458 39.9821 0.000213623 53.9929 0.000213623C63.3271 0.000213623 72.1079 2.37227 79.7675 6.54726C87.7842 3.65883 94.5799 1.8348 100.194 0.760263C108.978 -0.92082 115.644 -0.918887 119.547 0.384012L115.449 12.6948ZM79.7675 6.54726C74.7708 8.34769 69.299 10.5617 63.3435 13.2656C44.7037 21.7277 29.2548 18.6143 17.6216 14.1087C14.2506 17.1874 11.2707 20.688 8.76498 24.5273C22.0619 30.3117 43.2428 36.6387 68.6935 25.0845C77.9607 20.8774 85.8383 17.9886 92.3783 16.0456C88.6757 12.2972 84.4294 9.08831 79.7675 6.54726ZM2.04636 39.2767C0.846745 43.5094 0.149103 47.9535 0.0219002 52.5403C0.604506 52.8172 1.22468 53.1169 1.88145 53.4344L1.88232 53.4349L1.88525 53.4362L1.88655 53.4366C13.9289 59.2549 38.2582 71.0088 68.6935 57.1916C83.4649 50.4857 94.7073 47.1291 102.627 45.6134C104.314 45.2907 105.84 45.0532 107.209 44.8845C106.458 40.4885 105.177 36.2737 103.434 32.3082C102.389 32.4681 101.309 32.6543 100.194 32.8676C91.0803 34.6119 78.8539 38.3312 63.3435 45.3729C38.6459 56.5852 19.5509 47.4755 7.51029 41.7316C6.30113 41.1548 5.16315 40.6119 4.09773 40.1269L4.03363 40.0977L3.96891 40.0699C3.36692 39.8116 2.72318 39.5463 2.04636 39.2767ZM0.000717163 70.5935C1.44092 71.1346 2.78559 71.6693 3.96891 72.1771L4.03363 72.2052L4.09773 72.2342C5.16315 72.7191 6.30113 73.2619 7.51029 73.839C19.5509 79.5829 38.6459 88.6925 63.3435 77.4802C78.8539 70.4387 91.0803 66.7191 100.194 64.975C103.017 64.4348 105.621 64.0684 107.985 63.8629V76.9015C106.424 77.0719 104.641 77.3353 102.627 77.7207C94.7073 79.2364 83.4649 82.5931 68.6935 89.299C38.2582 103.116 13.9289 91.3623 1.88655 85.544C1.21999 85.2221 0.590942 84.918 0.000717163 84.6377V70.5935ZM0.000717163 102.701V116.745C0.590675 117.025 1.21929 117.329 1.88553 117.651L1.88655 117.651C13.9289 123.469 38.2582 135.223 68.6935 121.406C83.4649 114.7 94.7073 111.344 102.627 109.828C104.641 109.443 106.424 109.179 107.985 109.009V95.9703C105.621 96.1753 103.017 96.5421 100.194 97.0824C91.0803 98.8265 78.8539 102.546 63.3435 109.588C38.6459 120.799 19.5509 111.69 7.51029 105.946C6.30113 105.369 5.16315 104.826 4.09773 104.342L4.03363 104.312L3.96891 104.284C2.78559 103.777 1.44092 103.242 0.000717163 102.701ZM0.000717163 134.257C2.67363 135.198 5.23088 136.173 7.37186 137.091L7.52287 137.156L7.67249 137.224C8.82157 137.747 10.0065 138.308 11.229 138.886L11.2293 138.886C23.2367 144.566 38.8673 151.959 59.7765 142.467C75.7803 135.201 88.6619 131.24 98.5727 129.343C101.819 128.722 104.982 128.275 107.985 128.048V147.502H0.000717163V134.257Z" fill="url(#paint1_linear_1_13322)"/>
</g>
</g>
</g>
<defs>
<linearGradient id="paint0_linear_1_13322" x1="102.76" y1="30.8029" x2="17.5327" y2="114.778" gradientUnits="userSpaceOnUse">
<stop stop-color="#6A48F2"/>
<stop offset="0.6875" stop-color="#CD99FF"/>
</linearGradient>
<linearGradient id="paint1_linear_1_13322" x1="122.382" y1="177.214" x2="-41.7645" y2="3.86184" gradientUnits="userSpaceOnUse">
<stop stop-color="#CD99FF"/>
<stop offset="0.25" stop-color="#CD99FF"/>
<stop offset="1" stop-color="#6A48F2"/>
</linearGradient>
</defs>
</svg>
