<svg width="55" height="61" viewBox="0 0 55 61" fill="none" xmlns="http://www.w3.org/2000/svg">
<g id="Group 1261157559">
<path id="Vector 14" d="M54 56V5C54 2.79086 52.2091 1 50 1H24.7688C23.8781 1 23.0128 1.29732 22.3102 1.84484L2.54135 17.2496C1.56871 18.0075 1 19.1717 1 20.4048V56C1 58.2091 2.79086 60 5 60H50C52.2091 60 54 58.2091 54 56Z" stroke="url(#paint0_linear_1_12956)"/>
<g id="Vector">
<path d="M37 30.75H22H37ZM22 30.75L28.75 24L22 30.75ZM22 30.75L28.75 37.5L22 30.75Z" fill="white"/>
<path d="M37 30.75H22M22 30.75L28.75 24M22 30.75L28.75 37.5" stroke="white" stroke-width="1.5" stroke-linecap="round" stroke-linejoin="round"/>
</g>
</g>
<defs>
<linearGradient id="paint0_linear_1_12956" x1="1" y1="40.2089" x2="54" y2="40.2089" gradientUnits="userSpaceOnUse">
<stop stop-color="#6A48F2"/>
<stop offset="0.6875" stop-color="#CD99FF"/>
</linearGradient>
</defs>
</svg>
