<svg width="105" height="94" viewBox="0 0 105 94" fill="none" xmlns="http://www.w3.org/2000/svg">
<path id="&#226;&#128;&#156;" d="M30.8152 0.898438L47.9348 11.4861L32.8125 46.6831L46.7935 76.443C44.1304 80.0677 40.8016 83.5969 36.8071 87.0307C33.0027 90.4646 29.4837 92.7538 26.25 93.8984C21.4946 93.1354 16.5489 90.8461 11.413 87.0307C6.27717 83.0246 2.47283 78.5415 0 73.5815V54.9815C1.71196 50.5938 4.18478 45.2523 7.41848 38.9569C10.6522 32.4708 14.3614 25.8892 18.5462 19.2123C22.731 12.3446 26.8206 6.23997 30.8152 0.898438ZM105 11.4861L89.8777 46.6831L103.859 76.443C101.196 80.0677 97.8668 83.5969 93.8723 87.0307C90.0679 90.4646 86.5489 92.7538 83.3152 93.8984C78.5598 93.1354 73.6141 90.8461 68.4783 87.0307C63.3424 83.0246 59.538 78.5415 57.0652 73.5815V54.9815C58.7772 50.5938 61.25 45.2523 64.4837 38.9569C67.7174 32.4708 71.4266 25.8892 75.6114 19.2123C79.7962 12.3446 83.8859 6.23997 87.8804 0.898438L105 11.4861Z" fill="#1A1A1E"/>
</svg>
