<svg width="48" height="48" viewBox="0 0 48 48" fill="none" xmlns="http://www.w3.org/2000/svg">
<g id="Group 1261157473">
<circle id="Ellipse 50" cx="24" cy="24" r="24" fill="url(#paint0_linear_1_13021)"/>
<g id="Group 263">
<g id="icons">
<path id="Vector" d="M25.4423 13.5981C25.4425 13.5981 25.4427 13.5978 25.4425 13.5976C24.645 12.8006 23.3529 12.8008 22.5557 13.5981L21.2811 14.8731C19.7805 16.3742 19.7807 18.8076 21.2814 20.3086C22.7823 21.8099 25.2163 21.8102 26.7175 20.3091L28.2661 18.7604C28.912 18.1145 28.912 17.0673 28.2659 16.4214L25.4421 13.5986C25.4419 13.5984 25.442 13.5981 25.4423 13.5981ZM30.4078 18.5629C30.4069 18.5629 30.4061 18.5633 30.4054 18.5639L27.6897 21.281C26.1891 22.7824 26.1894 25.2159 27.6904 26.7169C29.1918 28.2184 31.6263 28.2182 33.1275 26.7165L34.4019 25.4416C35.1994 24.6441 35.1994 23.3531 34.4019 22.557L30.4101 18.5639C30.4095 18.5633 30.4087 18.5629 30.4078 18.5629ZM29.4357 30.4078C29.4357 30.4069 29.4354 30.4061 29.4348 30.4054L26.7176 27.6897C25.2162 26.1891 22.7827 26.1894 21.2817 27.6904C19.7802 29.1918 19.7804 31.6263 21.2822 33.1275L22.557 34.4019C23.3545 35.1994 24.6455 35.1994 25.4416 34.4019L29.4348 30.4101C29.4354 30.4095 29.4357 30.4087 29.4357 30.4078ZM17.5915 29.4357C17.592 29.4357 17.5924 29.4355 17.5927 29.4352L20.3096 26.7169C21.8099 25.2159 21.8098 22.7829 20.3093 21.282C18.8081 19.7804 16.3737 19.7805 14.8725 21.2822L13.5981 22.557C12.8006 23.3545 12.8006 24.6455 13.5981 25.4416L17.5904 29.4352C17.5907 29.4355 17.5911 29.4357 17.5915 29.4357Z" fill="url(#paint1_linear_1_13021)"/>
</g>
</g>
</g>
<defs>
<linearGradient id="paint0_linear_1_13021" x1="24" y1="0" x2="24" y2="48" gradientUnits="userSpaceOnUse">
<stop stop-color="#0D091D"/>
<stop offset="0.927083" stop-color="#32284F"/>
<stop offset="1" stop-color="#332A53"/>
</linearGradient>
<linearGradient id="paint1_linear_1_13021" x1="13" y1="27.6203" x2="35" y2="27.6203" gradientUnits="userSpaceOnUse">
<stop stop-color="#6A48F2"/>
<stop offset="0.6875" stop-color="#CD99FF"/>
</linearGradient>
</defs>
</svg>
