<svg width="48" height="48" viewBox="0 0 48 48" fill="none" xmlns="http://www.w3.org/2000/svg">
<g id="Group 1261157465">
<circle id="Ellipse 50" cx="24" cy="24" r="24" fill="url(#paint0_linear_1_12975)"/>
<g id="icons">
<path id="message" d="M31.5703 13.7139H16.5992C14.5407 13.7139 12.8564 15.3981 12.8564 17.4566V26.8135C12.8564 28.8721 14.5407 30.5563 16.5992 30.5563V33.3634C16.5992 34.2055 17.6285 34.5798 18.1899 34.0183L21.6519 30.5563H31.5703C33.6288 30.5563 35.313 28.8721 35.313 26.8135V17.4566C35.313 15.3981 33.6288 13.7139 31.5703 13.7139ZM25.9561 24.9422H20.342C19.7806 24.9422 19.4063 24.5679 19.4063 24.0065C19.4063 23.445 19.7806 23.0708 20.342 23.0708H25.9561C26.5175 23.0708 26.8918 23.445 26.8918 24.0065C26.8918 24.5679 26.5175 24.9422 25.9561 24.9422ZM27.8275 21.1994H20.342C19.7806 21.1994 19.4063 20.8251 19.4063 20.2637C19.4063 19.7023 19.7806 19.328 20.342 19.328H27.8275C28.3889 19.328 28.7632 19.7023 28.7632 20.2637C28.7632 20.8251 28.3889 21.1994 27.8275 21.1994Z" fill="url(#paint1_linear_1_12975)"/>
</g>
</g>
<defs>
<linearGradient id="paint0_linear_1_12975" x1="24" y1="0" x2="24" y2="48" gradientUnits="userSpaceOnUse">
<stop stop-color="#0D091D"/>
<stop offset="0.927083" stop-color="#32284F"/>
<stop offset="1" stop-color="#332A53"/>
</linearGradient>
<linearGradient id="paint1_linear_1_12975" x1="12.8564" y1="27.3848" x2="35.313" y2="27.3848" gradientUnits="userSpaceOnUse">
<stop stop-color="#6A48F2"/>
<stop offset="0.6875" stop-color="#CD99FF"/>
</linearGradient>
</defs>
</svg>
