<svg width="48" height="48" viewBox="0 0 48 48" fill="none" xmlns="http://www.w3.org/2000/svg">
<circle cx="24" cy="24" r="24" fill="url(#paint0_linear_1_13004)"/>
<g clip-path="url(#clip0_1_13004)">
<path d="M14 14.0625V29.875C14 30.2397 14.1449 30.5894 14.4027 30.8473C14.6606 31.1051 15.0103 31.25 15.375 31.25V14.0625C15.375 13.8802 15.4474 13.7053 15.5764 13.5764C15.7053 13.4474 15.8802 13.375 16.0625 13.375H33.25C33.25 13.0103 33.1051 12.6606 32.8473 12.4027C32.5894 12.1449 32.2397 12 31.875 12H16.0625C15.5155 12 14.9909 12.2173 14.6041 12.6041C14.2173 12.9909 14 13.5155 14 14.0625V14.0625Z" fill="url(#paint1_linear_1_13004)"/>
<path d="M18.8125 14.75C18.2655 14.75 17.7409 14.9673 17.3541 15.3541C16.9673 15.7409 16.75 16.2655 16.75 16.8125V31.9375C16.75 32.4845 16.9673 33.0091 17.3541 33.3959C17.7409 33.7827 18.2655 34 18.8125 34H27.1808C27.7276 33.9995 28.2518 33.7819 28.6383 33.395L35.3964 26.6383C35.7828 26.2516 35.9999 25.7274 36 25.1808V16.8125C36 16.2655 35.7827 15.7409 35.3959 15.3541C35.0091 14.9673 34.4845 14.75 33.9375 14.75H18.8125ZM27.0625 26.4375C27.0625 26.0728 27.2074 25.7231 27.4652 25.4652C27.7231 25.2074 28.0728 25.0625 28.4375 25.0625H34.482C34.5501 25.0624 34.6167 25.0825 34.6733 25.1202C34.7299 25.158 34.7741 25.2117 34.8002 25.2746C34.8262 25.3375 34.833 25.4067 34.8197 25.4735C34.8064 25.5402 34.7736 25.6015 34.7254 25.6496L27.6496 32.7254C27.6015 32.7736 27.5402 32.8064 27.4735 32.8197C27.4067 32.833 27.3375 32.8262 27.2746 32.8002C27.2117 32.7741 27.158 32.7299 27.1202 32.6733C27.0825 32.6167 27.0624 32.5501 27.0625 32.482V26.4375Z" fill="url(#paint2_linear_1_13004)"/>
</g>
<defs>
<linearGradient id="paint0_linear_1_13004" x1="24" y1="0" x2="24" y2="48" gradientUnits="userSpaceOnUse">
<stop stop-color="#0D091D"/>
<stop offset="0.927083" stop-color="#32284F"/>
<stop offset="1" stop-color="#332A53"/>
</linearGradient>
<linearGradient id="paint1_linear_1_13004" x1="14" y1="24.7927" x2="33.25" y2="24.7927" gradientUnits="userSpaceOnUse">
<stop stop-color="#6A48F2"/>
<stop offset="0.6875" stop-color="#CD99FF"/>
</linearGradient>
<linearGradient id="paint2_linear_1_13004" x1="16.75" y1="27.5427" x2="36" y2="27.5427" gradientUnits="userSpaceOnUse">
<stop stop-color="#6A48F2"/>
<stop offset="0.6875" stop-color="#CD99FF"/>
</linearGradient>
<clipPath id="clip0_1_13004">
<rect x="14" y="12" width="22" height="22" rx="10" fill="white"/>
</clipPath>
</defs>
</svg>
